<svg width="1200" height="760" viewBox="0 0 1200 760" fill="none" xmlns="http://www.w3.org/2000/svg">
<rect width="1200" height="760" rx="36" fill="#070B16"/>
<circle cx="300" cy="220" r="260" fill="#8B5CF6" fill-opacity="0.19"/>
<circle cx="930" cy="520" r="310" fill="#3B82F6" fill-opacity="0.17"/>
<rect x="92" y="96" width="1016" height="568" rx="30" fill="#0F172A" fill-opacity="0.76" stroke="#94A3B8" stroke-opacity="0.18"/>
<rect x="142" y="146" width="916" height="82" rx="22" fill="#111827"/>
<rect x="176" y="177" width="190" height="20" rx="10" fill="#22D3EE"/>
<rect x="760" y="169" width="74" height="18" rx="9" fill="#CBD5E1" fill-opacity="0.4"/>
<rect x="852" y="169" width="74" height="18" rx="9" fill="#CBD5E1" fill-opacity="0.4"/>
<rect x="944" y="169" width="74" height="18" rx="9" fill="#CBD5E1" fill-opacity="0.4"/>
<rect x="142" y="276" width="420" height="230" rx="24" fill="#111827"/>
<rect x="606" y="276" width="452" height="230" rx="24" fill="#1E293B"/>
<rect x="176" y="538" width="250" height="38" rx="19" fill="#F8FAFC" fill-opacity="0.86"/>
<rect x="176" y="592" width="390" height="20" rx="10" fill="#CBD5E1" fill-opacity="0.42"/>
<text x="142" y="645" fill="#F8FAFC" font-family="Arial, sans-serif" font-size="34" font-weight="700">Website Perusahaan</text>
</svg>
