<svg width="1200" height="760" viewBox="0 0 1200 760" fill="none" xmlns="http://www.w3.org/2000/svg">
<rect width="1200" height="760" rx="36" fill="#060A14"/>
<circle cx="938" cy="118" r="290" fill="#22D3EE" fill-opacity="0.16"/>
<circle cx="220" cy="640" r="330" fill="#3B82F6" fill-opacity="0.18"/>
<rect x="82" y="88" width="1036" height="584" rx="30" fill="#0F172A" fill-opacity="0.72" stroke="#94A3B8" stroke-opacity="0.18"/>
<rect x="122" y="128" width="956" height="78" rx="22" fill="#111827"/>
<rect x="158" y="155" width="260" height="24" rx="12" fill="#22D3EE"/>
<rect x="750" y="148" width="120" height="38" rx="19" fill="#1E293B"/>
<rect x="890" y="148" width="150" height="38" rx="19" fill="#3B82F6"/>
<g>
<rect x="122" y="250" width="282" height="354" rx="24" fill="#111827" stroke="#334155"/>
<rect x="459" y="250" width="282" height="354" rx="24" fill="#111827" stroke="#334155"/>
<rect x="796" y="250" width="282" height="354" rx="24" fill="#111827" stroke="#334155"/>
<rect x="154" y="292" width="160" height="20" rx="10" fill="#F8FAFC" fill-opacity="0.85"/>
<rect x="491" y="292" width="155" height="20" rx="10" fill="#F8FAFC" fill-opacity="0.85"/>
<rect x="828" y="292" width="145" height="20" rx="10" fill="#F8FAFC" fill-opacity="0.85"/>
<rect x="154" y="350" width="218" height="72" rx="18" fill="#1E293B"/>
<rect x="154" y="446" width="218" height="98" rx="18" fill="#1E293B"/>
<rect x="491" y="350" width="218" height="98" rx="18" fill="#1E293B"/>
<rect x="491" y="472" width="218" height="72" rx="18" fill="#1E293B"/>
<rect x="828" y="350" width="218" height="194" rx="18" fill="#1E293B"/>
</g>
<text x="122" y="645" fill="#F8FAFC" font-family="Arial, sans-serif" font-size="34" font-weight="700">ITI Project Manager</text>
</svg>
