<svg width="1200" height="760" viewBox="0 0 1200 760" fill="none" xmlns="http://www.w3.org/2000/svg">
<rect width="1200" height="760" rx="36" fill="#08070D"/>
<circle cx="870" cy="190" r="260" fill="#EF4444" fill-opacity="0.16"/>
<circle cx="290" cy="560" r="300" fill="#F59E0B" fill-opacity="0.14"/>
<rect x="90" y="96" width="1020" height="568" rx="30" fill="#0F172A" fill-opacity="0.76" stroke="#94A3B8" stroke-opacity="0.18"/>
<path d="M208 428C252 300 340 238 472 242C596 246 694 336 732 428" stroke="#F8FAFC" stroke-opacity="0.8" stroke-width="28" stroke-linecap="round"/>
<rect x="248" y="426" width="446" height="82" rx="36" fill="#F8FAFC" fill-opacity="0.12" stroke="#F59E0B" stroke-opacity="0.4"/>
<path d="M704 446H790C826 446 854 474 854 510C854 546 826 574 790 574H716" stroke="#F8FAFC" stroke-opacity="0.65" stroke-width="24" stroke-linecap="round"/>
<rect x="250" y="506" width="444" height="74" rx="22" fill="#F59E0B" fill-opacity="0.28"/>
<rect x="160" y="152" width="260" height="28" rx="14" fill="#F59E0B"/>
<rect x="160" y="206" width="420" height="20" rx="10" fill="#CBD5E1" fill-opacity="0.38"/>
<rect x="160" y="242" width="350" height="20" rx="10" fill="#CBD5E1" fill-opacity="0.25"/>
<text x="160" y="645" fill="#F8FAFC" font-family="Arial, sans-serif" font-size="34" font-weight="700">Website Kedai Kopi</text>
</svg>
