<svg width="1200" height="760" viewBox="0 0 1200 760" fill="none" xmlns="http://www.w3.org/2000/svg">
<rect width="1200" height="760" rx="36" fill="#05070D"/>
<circle cx="264" cy="170" r="230" fill="#3B82F6" fill-opacity="0.25"/>
<circle cx="908" cy="230" r="270" fill="#8B5CF6" fill-opacity="0.22"/>
<circle cx="650" cy="630" r="260" fill="#22D3EE" fill-opacity="0.13"/>
<g opacity="0.18"><path d="M0 120H1200M0 240H1200M0 360H1200M0 480H1200M0 600H1200" stroke="#94A3B8"/><path d="M150 0V760M300 0V760M450 0V760M600 0V760M750 0V760M900 0V760M1050 0V760" stroke="#94A3B8"/></g>
<rect x="92" y="108" width="1016" height="544" rx="28" fill="#0F172A" fill-opacity="0.68" stroke="#22D3EE" stroke-opacity="0.28"/>
<rect x="132" y="148" width="330" height="30" rx="15" fill="#22D3EE" fill-opacity="0.9"/>
<rect x="132" y="226" width="600" height="46" rx="14" fill="#F8FAFC" fill-opacity="0.92"/>
<rect x="132" y="296" width="510" height="26" rx="13" fill="#CBD5E1" fill-opacity="0.5"/>
<rect x="132" y="342" width="420" height="26" rx="13" fill="#CBD5E1" fill-opacity="0.34"/>
<rect x="132" y="420" width="170" height="52" rx="26" fill="#22D3EE"/>
<rect x="322" y="420" width="170" height="52" rx="26" fill="#0B1220" stroke="#64748B" stroke-opacity="0.45"/>
<rect x="790" y="180" width="230" height="330" rx="115" fill="#111827" stroke="#22D3EE" stroke-opacity="0.3"/>
<path d="M796 520C855 468 944 468 1014 520" stroke="#8B5CF6" stroke-width="22" stroke-linecap="round"/>
<text x="132" y="584" fill="#F8FAFC" font-family="Arial, sans-serif" font-size="36" font-weight="700">Portfolio Cinematic</text>
</svg>
